<?xml version="1.0" encoding="UTF-8"?>
<svg width="203px" height="78px" viewBox="0 0 203 78" version="1.1" xmlns="http://www.w3.org/2000/svg" xmlns:xlink="http://www.w3.org/1999/xlink">
    <!-- Generator: Sketch 49.2 (51160) - http://www.bohemiancoding.com/sketch -->
    <title>1</title>
    <desc>Created with Sketch.</desc>
    <defs>
        <polygon id="path-1" points="0 77.2381 202.224 77.2381 202.224 0.0001 0 0.0001"></polygon>
    </defs>
    <g id="Page-1" stroke="none" stroke-width="1" fill="none" fill-rule="evenodd">
        <g id="集团官网首页" transform="translate(-134.000000, -27.000000)">
            <g id="Page-1" transform="translate(134.000000, 27.000000)">
                <g id="Group-4">
                    <path d="M77.2384,38.6195 C77.2384,59.9475 59.9474,77.2375 38.6194,77.2375 C17.2904,77.2375 0.0004,59.9475 0.0004,38.6195 C0.0004,17.2905 17.2904,0.0005 38.6194,0.0005 C59.9474,0.0005 77.2384,17.2905 77.2384,38.6195" id="Fill-1" fill="#0C0E28"></path>
                    <path d="M24.5646,35.722 C24.7046,35.744 24.8436,35.71 24.9606,35.629 L29.7426,32.293 C30.1406,32.015 30.0046,31.393 29.5286,31.302 C23.9706,30.249 20.6886,30.05 11.8786,31.55 C7.6866,32.265 3.7036,33.943 0.0946,35.79 C0.0446,36.467 0.0136,37.15 0.0006,37.836 C2.2296,37.044 4.6596,36.303 7.3926,35.756 C14.7386,34.287 23.1306,35.495 24.5646,35.722" id="Fill-3" fill="#5BB8DE"></path>
                    <path d="M35.3976,13.7455 C45.5256,14.6235 53.5466,18.5825 55.1616,19.4285 C55.3466,19.5245 55.5686,19.5065 55.7376,19.3825 L59.7186,16.4515 C60.0436,16.2125 60.0086,15.7145 59.6516,15.5255 C56.7246,13.9795 45.7046,8.6505 32.8386,8.6505 C21.8476,8.6505 13.0606,13.8285 6.5296,17.0985 C6.2066,17.5795 5.8926,18.0675 5.5906,18.5625 C12.4576,16.6215 23.1416,12.6825 35.3976,13.7455" id="Fill-5" fill="#5BB8DE"></path>
                    <path d="M69.1349,62.2494 C50.9809,45.2144 32.1129,37.6494 16.7159,37.6494 C10.9689,37.6494 5.2019,39.0654 0.0569,40.9544 C0.1139,41.9094 0.2089,42.8534 0.3349,43.7874 C4.1029,42.9754 8.3519,42.4164 13.0709,42.4164 C36.7389,42.4164 56.2969,57.6874 65.4779,66.3364 C66.7899,65.0624 68.0119,63.6964 69.1349,62.2494" id="Fill-7" fill="#5BB8DE"></path>
                    <path d="M46.5177,62.4955 C46.7207,62.6545 47.0047,62.6475 47.2037,62.4815 L50.7957,59.4875 C51.0737,59.2575 51.0547,58.8215 50.7607,58.6135 C37.8007,49.4495 25.6017,44.8225 10.4997,44.8225 C7.2547,44.8225 3.9477,45.4005 0.7467,46.3065 C1.0007,47.5615 1.3157,48.7955 1.6887,50.0035 C3.5217,49.7445 5.3537,49.5905 7.1357,49.5905 C29.0507,49.5905 44.0997,60.6075 46.5177,62.4955" id="Fill-9" fill="#5BB8DE"></path>
                    <path d="M60.9025,32.0804 C61.0995,32.2234 61.3645,32.2174 61.5575,32.0674 L65.6365,28.9084 C65.9255,28.6844 65.9225,28.2474 65.6265,28.0324 C62.7505,25.9434 49.4805,16.9864 32.2785,16.0594 C18.5985,15.3204 9.4485,20.6244 2.7565,24.2404 C2.5145,24.8454 2.2875,25.4564 2.0755,26.0754 C7.7535,24.1254 13.4975,20.6144 27.1615,20.6144 C44.2805,20.6144 58.5855,30.4084 60.9025,32.0804" id="Fill-11" fill="#5BB8DE"></path>
                    <path d="M33.7668,29.642 C33.9358,29.696 34.1188,29.663 34.2588,29.554 L38.7458,26.148 C39.0958,25.881 39.0058,25.327 38.5878,25.19 C29.0138,22.052 21.1698,22.607 11.9498,25.522 C7.3198,26.986 3.9148,28.879 0.7928,30.713 C0.6688,31.31 0.5608,31.913 0.4638,32.521 C5.4748,30.64 10.7498,28.676 16.5058,28.045 C25.0818,27.107 32.3168,29.186 33.7668,29.642" id="Fill-13" fill="#5BB8DE"></path>
                    <path d="M101.5236,60.1322 C101.5236,59.7792 101.4736,59.5572 101.3786,59.4642 C101.2826,59.3732 101.0956,59.3262 100.8186,59.3262 L96.2716,59.3262 C95.9946,59.3262 95.8176,59.3902 95.7386,59.5172 C95.6606,59.6452 95.6216,59.8572 95.6216,60.1542 L95.6216,61.8742 C95.6216,62.1712 95.6726,62.3732 95.7756,62.4802 C95.8776,62.5842 96.0306,62.6382 96.2346,62.6382 L100.7476,62.6382 C101.0726,62.6382 101.2826,62.5712 101.3786,62.4362 C101.4736,62.3032 101.5236,62.0712 101.5236,61.7462 L101.5236,60.1322 Z M103.6516,62.7232 C103.6516,63.5442 103.5166,64.1242 103.2476,64.4642 C102.9746,64.8042 102.4846,64.9742 101.7756,64.9742 L95.3326,64.9742 C94.6476,64.9742 94.1656,64.8002 93.8886,64.4532 C93.6116,64.1072 93.4746,63.5302 93.4746,62.7232 L93.4746,59.2412 C93.4746,58.4342 93.6116,57.8542 93.8886,57.5012 C94.1656,57.1472 94.6476,56.9702 95.3326,56.9702 L101.7756,56.9702 C102.4846,56.9702 102.9746,57.1472 103.2476,57.5012 C103.5166,57.8542 103.6516,58.4342 103.6516,59.2412 L103.6516,62.7232 Z M107.5496,65.3772 C107.5496,66.3542 107.3526,67.1042 106.9546,67.6282 C106.5576,68.1522 105.8716,68.4772 104.8976,68.6052 C104.5956,68.6322 104.3076,68.6472 104.0316,68.6472 C103.7536,68.6472 103.4676,68.6372 103.1736,68.6142 C102.8796,68.5932 102.5696,68.5512 102.2456,68.4882 C101.9196,68.4242 101.5706,68.3422 101.1986,68.2422 C100.6926,68.1152 100.3646,67.9102 100.2136,67.6282 C100.0626,67.3452 100.0256,67.0042 100.0966,66.6092 C100.1696,66.2402 100.3196,65.9642 100.5476,65.7802 C100.7766,65.5962 101.1566,65.5742 101.6856,65.7162 C102.1296,65.8302 102.5366,65.9152 102.9036,65.9712 C103.2706,66.0282 103.6646,66.0642 104.0856,66.0782 C104.3736,66.0922 104.6016,66.0802 104.7716,66.0462 C104.9396,66.0112 105.0686,65.9462 105.1596,65.8552 C105.2496,65.7632 105.3096,65.6322 105.3396,65.4612 C105.3696,65.2922 105.3846,65.0802 105.3846,64.8252 L105.3846,52.8082 C105.3846,52.4542 105.3336,52.2282 105.2306,52.1282 C105.1286,52.0302 104.9526,51.9802 104.6986,51.9802 L94.1776,51.9802 C93.7926,51.9802 93.5016,51.8742 93.3016,51.6612 C93.1046,51.4482 93.0046,51.1602 93.0046,50.7912 C93.0046,50.4092 93.0946,50.1112 93.2756,49.8992 C93.4566,49.6882 93.7556,49.5812 94.1776,49.5812 L105.3486,49.5812 C105.7936,49.5812 106.1576,49.6272 106.4406,49.7202 C106.7226,49.8112 106.9466,49.9562 107.1086,50.1532 C107.2716,50.3532 107.3846,50.6222 107.4506,50.9612 C107.5166,51.3002 107.5496,51.7122 107.5496,52.1932 L107.5496,65.3772 Z M104.5906,54.3372 C104.5906,54.7612 104.4826,55.0442 104.2656,55.1862 C104.0496,55.3272 103.7666,55.3992 103.4186,55.3992 L93.5086,55.3992 C93.1606,55.3992 92.8786,55.3382 92.6616,55.2182 C92.4456,55.0982 92.3356,54.8252 92.3356,54.4022 C92.3356,53.9902 92.4356,53.7142 92.6346,53.5732 C92.8346,53.4322 93.1256,53.3602 93.5086,53.3602 L103.4186,53.3602 C103.8026,53.3602 104.0946,53.4202 104.2936,53.5412 C104.4916,53.6612 104.5906,53.9262 104.5906,54.3372 Z" id="Fill-15" fill="#5BB8DE"></path>
                    <path d="M129.8009,57.4798 C130.2229,57.4798 130.5739,57.5218 130.8579,57.6058 C131.1389,57.6918 131.3639,57.8368 131.5339,58.0418 C131.7019,58.2478 131.8219,58.5308 131.8939,58.8908 C131.9669,59.2518 132.0029,59.7078 132.0029,60.2598 C132.0029,61.2088 131.9809,62.0368 131.9389,62.7448 C131.8969,63.4528 131.8339,64.0758 131.7499,64.6128 C131.6659,65.1508 131.5609,65.6148 131.4349,66.0028 C131.3089,66.3928 131.1669,66.7438 131.0099,67.0548 C130.7209,67.5778 130.2649,67.9898 129.6379,68.2868 C129.0129,68.5838 128.3029,68.7318 127.5099,68.7318 C126.9909,68.7318 126.4559,68.6928 125.9029,68.6148 C125.3489,68.5378 124.8019,68.3418 124.2599,68.0318 C123.8159,67.7488 123.5319,67.4718 123.4119,67.2038 C123.2919,66.9338 123.3409,66.5728 123.5569,66.1208 C123.7139,65.7668 123.9209,65.5538 124.1799,65.4838 C124.4379,65.4128 124.7899,65.4838 125.2359,65.6958 C125.6929,65.9088 126.0959,66.0458 126.4449,66.1108 C126.7929,66.1728 127.1489,66.2058 127.5099,66.2058 C127.9299,66.2058 128.2969,66.1408 128.6099,66.0138 C128.9219,65.8868 129.1449,65.7088 129.2789,65.4838 L129.2599,65.4838 C129.3439,65.3418 129.4219,65.1478 129.4939,64.8998 C129.5669,64.6518 129.6299,64.3338 129.6849,63.9438 C129.7379,63.5538 129.7799,63.0708 129.8109,62.4898 C129.8399,61.9098 129.8609,61.2088 129.8729,60.3868 C129.8729,60.3028 129.8559,60.2288 129.8189,60.1648 C129.7819,60.1018 129.7429,60.0548 129.7009,60.0278 C129.6589,59.9998 129.6199,59.9768 129.5849,59.9628 C129.5479,59.9488 129.5359,59.9418 129.5479,59.9418 L119.9119,59.9418 C119.4299,59.9418 119.0359,59.8998 118.7299,59.8148 C118.4219,59.7298 118.1859,59.5888 118.0159,59.3898 C117.8479,59.1918 117.7419,58.9258 117.6999,58.5938 C117.6579,58.2618 117.6609,57.8468 117.7089,57.3518 L117.7089,57.3738 C117.7449,56.9628 117.7769,56.6198 117.7999,56.3428 C117.8239,56.0678 117.8509,55.8098 117.8819,55.5688 C117.9109,55.3278 117.9379,55.0698 117.9629,54.7928 C117.9869,54.5178 118.0159,54.1738 118.0529,53.7638 C118.0889,53.3108 118.1969,52.9928 118.3779,52.8078 C118.5589,52.6248 118.7919,52.5318 119.0809,52.5318 C119.5269,52.5318 119.8279,52.6378 119.9839,52.8498 C120.1409,53.0628 120.2059,53.4178 120.1829,53.9128 L119.8939,57.0768 C119.8939,57.2738 119.9259,57.3918 119.9929,57.4258 C120.0589,57.4608 120.2249,57.4798 120.4889,57.4798 L127.1299,57.4798 L127.4729,52.7018 C127.4729,52.3478 127.3589,52.1718 127.1299,52.1718 L117.6019,52.1718 C117.1929,52.1718 116.9089,52.0678 116.7529,51.8638 C116.5969,51.6588 116.5179,51.3438 116.5179,50.9188 C116.5179,50.5368 116.6099,50.2278 116.7899,49.9958 C116.9689,49.7618 117.2349,49.6598 117.5829,49.6878 L127.7979,49.6878 C128.1709,49.6878 128.4839,49.7218 128.7359,49.7938 C128.9889,49.8638 129.1839,49.9958 129.3219,50.1858 C129.4619,50.3768 129.5509,50.6428 129.5929,50.9818 C129.6349,51.3228 129.6379,51.7608 129.6029,52.2988 C129.5539,53.0628 129.5009,53.8958 129.4409,54.7928 C129.3799,55.6918 129.3209,56.5868 129.2599,57.4798 L129.8009,57.4798 Z M128.9159,63.2538 C128.9159,63.7348 128.8379,64.0688 128.6829,64.2518 C128.5259,64.4358 128.2419,64.5288 127.8329,64.5288 L116.3569,64.5288 C115.9469,64.5288 115.6699,64.4358 115.5259,64.2518 C115.3819,64.0688 115.3109,63.7348 115.3109,63.2538 C115.3109,62.7578 115.3819,62.4258 115.5259,62.2568 C115.6699,62.0858 115.9469,62.0008 116.3569,62.0008 L127.8519,62.0008 C128.2369,62.0008 128.5099,62.0858 128.6729,62.2568 C128.8349,62.4258 128.9159,62.7578 128.9159,63.2538 Z" id="Fill-17" fill="#5BB8DE"></path>
                    <path d="M149.5988,54.5921 C149.6598,54.4921 149.6888,54.4221 149.6888,54.3791 C149.6888,54.3371 149.6408,54.3161 149.5438,54.3161 L145.2678,54.3161 C145.2448,54.3441 145.2228,54.3761 145.2048,54.4111 C145.1868,54.4461 145.1648,54.4781 145.1418,54.5061 C145.8398,55.3561 146.6148,56.0921 147.4688,56.7151 C147.8908,56.4041 148.2728,56.0711 148.6158,55.7171 C148.9588,55.3631 149.2868,54.9881 149.5988,54.5921 Z M151.8188,65.6121 C151.7828,65.6961 151.7408,65.7671 151.6928,65.8221 L152.8468,65.8221 C153.0038,65.8221 153.1228,65.7441 153.2088,65.5891 C153.2928,65.4331 153.3348,65.2221 153.3348,64.9521 L153.3348,52.0441 C153.3348,51.8451 153.2868,51.6961 153.1908,51.5991 C153.0938,51.4991 152.9198,51.4481 152.6658,51.4481 L145.4488,51.4481 C145.5438,51.4781 145.6168,51.5061 145.6638,51.5341 C145.8698,51.6341 146.0318,51.7611 146.1528,51.9161 C146.2728,52.0721 146.3208,52.2561 146.2958,52.4691 L150.3748,52.4691 C150.7958,52.4691 151.1358,52.5431 151.3938,52.6921 C151.6538,52.8401 151.8338,53.0301 151.9368,53.2651 C152.0388,53.4981 152.0658,53.7641 152.0178,54.0611 C151.9688,54.3581 151.8558,54.6541 151.6738,54.9511 C151.3368,55.5201 150.9798,56.0321 150.6008,56.4911 C150.2208,56.9511 149.8098,57.3801 149.3638,57.7771 C149.7128,57.9321 150.0798,58.0701 150.4648,58.1911 C150.8508,58.3111 151.2598,58.4131 151.6928,58.4981 C152.2568,58.6121 152.6098,58.7931 152.7478,59.0391 C152.8868,59.2871 152.9198,59.5681 152.8468,59.8791 C152.7868,60.1901 152.6458,60.4021 152.4228,60.5151 C152.2008,60.6281 151.8668,60.6281 151.4218,60.5151 C150.0748,60.2181 148.8048,59.7381 147.6138,59.0711 C147.2288,59.3131 146.8308,59.5251 146.4218,59.7071 C147.0488,59.8641 147.6448,60.0341 148.2088,60.2181 C148.7758,60.4021 149.3948,60.6561 150.0688,60.9831 C150.3208,61.0951 150.4898,61.2521 150.5738,61.4491 C150.6578,61.6471 150.6278,61.9161 150.4838,62.2571 C150.3498,62.5681 150.1678,62.7381 149.9328,62.7651 C149.6988,62.7951 149.4178,62.7381 149.0928,62.5961 C148.7928,62.4681 148.5128,62.3551 148.2538,62.2571 C147.9958,62.1571 147.7318,62.0651 147.4608,61.9811 C147.1908,61.8951 146.9108,61.8101 146.6208,61.7261 C146.3328,61.6401 146.0128,61.5421 145.6638,61.4291 C145.3518,61.3431 145.1478,61.1881 145.0508,60.9601 C144.9548,60.7351 144.9848,60.4931 145.1418,60.2381 C144.8278,60.3531 144.5038,60.4591 144.1658,60.5571 C143.8298,60.6561 143.4868,60.7491 143.1378,60.8331 C142.7178,60.9331 142.3958,60.9231 142.1718,60.8021 C141.9498,60.6821 141.8158,60.4241 141.7658,60.0281 C141.7428,59.6871 141.8058,59.4401 141.9558,59.2831 C142.1068,59.1271 142.3618,59.0001 142.7228,58.9021 C143.3008,58.7461 143.8358,58.5751 144.3288,58.3921 C144.8228,58.2081 145.2868,58.0091 145.7188,57.7981 C145.0578,57.2321 144.4858,56.6161 144.0038,55.9511 C143.9198,56.0491 143.8388,56.1461 143.7618,56.2371 C143.6828,56.3291 143.6018,56.4171 143.5178,56.5031 C143.2408,56.7861 142.9698,56.9381 142.7048,56.9581 C142.4408,56.9801 142.2058,56.8561 142.0008,56.5871 C141.8448,56.4041 141.7738,56.1691 141.7848,55.8871 C141.7968,55.6041 141.9648,55.3211 142.2898,55.0371 C142.7358,54.6541 143.1348,54.2281 143.4898,53.7521 C143.8458,53.2791 144.1618,52.7661 144.4388,52.2141 C144.6908,51.7611 144.9318,51.5061 145.1608,51.4481 L141.7128,51.4481 C141.5558,51.4481 141.4428,51.4921 141.3698,51.5761 C141.2978,51.6611 141.2618,51.8241 141.2618,52.0661 L141.2618,64.9521 C141.2618,65.5321 141.4718,65.8221 141.8938,65.8221 L150.1948,65.8221 C149.1718,65.4411 148.1518,65.1181 147.1358,64.8581 C146.1188,64.5951 145.0268,64.3451 143.8598,64.1041 C143.5108,64.0321 143.2798,63.8951 143.1658,63.6891 C143.0508,63.4851 143.0178,63.2191 143.0668,62.8931 C143.1378,62.5261 143.2558,62.2871 143.4178,62.1831 C143.5808,62.0751 143.7988,62.0511 144.0768,62.1081 C144.7978,62.2641 145.4728,62.4081 146.0978,62.5421 C146.7238,62.6771 147.3198,62.8191 147.8838,62.9671 C148.4508,63.1151 149.0038,63.2731 149.5438,63.4351 C150.0868,63.5981 150.6278,63.7791 151.1678,63.9761 C151.6378,64.1311 151.9058,64.3521 151.9718,64.6351 C152.0388,64.9171 151.9868,65.2421 151.8188,65.6121 Z M155.3018,65.8021 C155.3018,66.6091 155.1628,67.1961 154.8858,67.5641 C154.6108,67.9321 154.1118,68.1151 153.3878,68.1151 L141.1538,68.1151 C140.4308,68.1151 139.9418,67.9321 139.6828,67.5641 C139.4228,67.1961 139.2938,66.6091 139.2938,65.8021 L139.2938,51.4061 C139.2938,50.6001 139.4148,50.0201 139.6558,49.6661 C139.8958,49.3121 140.3768,49.1351 141.0988,49.1351 L153.3878,49.1351 C154.1118,49.1351 154.6108,49.3121 154.8858,49.6661 C155.1628,50.0201 155.3018,50.6001 155.3018,51.4061 L155.3018,65.8021 Z" id="Fill-19" fill="#5BB8DE"></path>
                    <mask id="mask-2" fill="white">
                        <use xlink:href="#path-1"></use>
                    </mask>
                    <g id="Clip-22"></g>
                    <path d="M165.769,58.5821 L170.84,58.5821 L170.84,57.6491 L165.769,57.6491 L165.769,58.5821 Z M165.769,55.8871 L170.84,55.8871 L170.84,54.9951 L165.769,54.9951 L165.769,55.8871 Z M165.769,53.2761 L170.84,53.2761 L170.84,52.3631 L165.769,52.3631 L165.769,53.2761 Z M166.797,50.6001 L171.199,50.6001 C171.115,50.4881 171.034,50.3741 170.957,50.2601 C170.879,50.1471 170.785,50.0121 170.677,49.8571 C170.339,49.3761 170.448,48.9381 171.002,48.5411 C171.556,48.1451 172.084,48.3421 172.59,49.1351 C172.722,49.3471 172.855,49.5671 172.986,49.7941 C173.119,50.0201 173.27,50.2881 173.438,50.6001 L177.86,50.6001 C178.136,50.6001 178.356,50.6711 178.519,50.8131 C178.681,50.9541 178.762,51.1811 178.762,51.4921 C178.762,51.8181 178.681,52.0441 178.519,52.1721 C178.356,52.2991 178.136,52.3631 177.86,52.3631 L172.788,52.3631 L172.788,53.2761 L177.282,53.2761 C177.595,53.2761 177.826,53.3391 177.976,53.4661 C178.127,53.5941 178.201,53.8201 178.201,54.1461 C178.201,54.4711 178.127,54.6941 177.976,54.8151 C177.826,54.9351 177.595,54.9951 177.282,54.9951 L172.788,54.9951 L172.788,55.8871 L177.246,55.8871 C177.86,55.8871 178.167,56.1621 178.167,56.7151 C178.167,57.3381 177.86,57.6501 177.246,57.6501 L172.788,57.6501 L172.788,58.5821 L177.968,58.5821 C178.28,58.5821 178.512,58.6541 178.663,58.7951 C178.813,58.9371 178.889,59.1711 178.889,59.4961 C178.889,60.1051 178.581,60.4081 177.968,60.4081 L171.561,60.4081 C171.657,60.5661 171.705,60.7701 171.705,61.0251 L171.705,61.6841 L178.201,61.6841 C178.587,61.6841 178.858,61.7581 179.015,61.9071 C179.17,62.0551 179.248,62.2911 179.248,62.6161 C179.248,62.9711 179.17,63.2221 179.015,63.3701 C178.858,63.5191 178.587,63.5931 178.201,63.5931 L173.348,63.5931 C173.744,63.8761 174.156,64.1501 174.584,64.4101 C175.011,64.6741 175.442,64.9201 175.874,65.1551 C176.307,65.3871 176.735,65.6001 177.155,65.7901 C177.576,65.9831 177.968,66.1411 178.329,66.2691 C178.618,66.3821 178.839,66.4981 178.996,66.6181 C179.152,66.7401 179.264,66.8661 179.33,67.0011 C179.396,67.1361 179.421,67.2731 179.403,67.4141 C179.384,67.5561 179.345,67.7041 179.285,67.8621 C179.116,68.2711 178.897,68.4731 178.626,68.4661 C178.356,68.4581 177.991,68.3571 177.534,68.1581 C176.669,67.7771 175.754,67.2591 174.791,66.6091 C173.828,65.9571 172.8,65.2071 171.705,64.3591 L171.705,67.7351 C171.705,68.0731 171.66,68.3391 171.57,68.5311 C171.48,68.7211 171.218,68.8161 170.785,68.8161 C170.448,68.8161 170.195,68.7391 170.027,68.5831 C169.859,68.4261 169.775,68.1451 169.775,67.7351 L169.775,64.8041 C168.945,65.5261 168.051,66.1761 167.094,66.7571 C166.138,67.3371 165.184,67.8321 164.234,68.2421 C163.921,68.3841 163.653,68.4841 163.431,68.5401 C163.208,68.5971 163.019,68.6121 162.862,68.5831 C162.706,68.5541 162.573,68.4771 162.466,68.3491 C162.358,68.2221 162.261,68.0381 162.177,67.7971 C162.044,67.4451 162.065,67.1531 162.24,66.9271 C162.413,66.7001 162.741,66.5021 163.224,66.3331 C164.246,65.9641 165.202,65.5741 166.094,65.1641 C166.984,64.7551 167.807,64.2311 168.566,63.5931 L163.314,63.5931 C162.928,63.5931 162.657,63.5191 162.502,63.3701 C162.345,63.2221 162.267,62.9711 162.267,62.6161 C162.267,62.2911 162.345,62.0551 162.502,61.9071 C162.657,61.7581 162.928,61.6841 163.314,61.6841 L169.775,61.6841 L169.775,61.0251 C169.775,60.7561 169.822,60.5511 169.919,60.4081 L165.769,60.4081 C165.744,60.7911 165.666,61.0321 165.533,61.1311 C165.402,61.2301 165.154,61.2801 164.793,61.2801 C164.384,61.2801 164.116,61.1951 163.99,61.0251 C163.864,60.8561 163.801,60.5291 163.801,60.0481 L163.801,55.2721 C163.488,55.5971 163.197,55.7421 162.925,55.7051 C162.654,55.6711 162.424,55.5201 162.232,55.2501 C162.027,54.9671 161.943,54.7081 161.978,54.4761 C162.015,54.2411 162.177,53.9771 162.466,53.6781 C163.091,53.0421 163.644,52.3411 164.126,51.5761 C164.607,50.8131 165.028,50.0051 165.389,49.1571 C165.558,48.7891 165.737,48.5581 165.931,48.4671 C166.123,48.3741 166.394,48.4071 166.742,48.5621 C166.984,48.7181 167.115,48.9411 167.14,49.2311 C167.164,49.5211 167.127,49.8081 167.03,50.0911 L166.797,50.6001 Z" id="Fill-21" fill="#5BB8DE" mask="url(#mask-2)"></path>
                    <path d="M199.6603,55.5892 C199.6603,56.0422 199.5583,56.3432 199.3533,56.4912 C199.1493,56.6412 198.8723,56.7152 198.5223,56.7152 L197.2423,56.7152 L197.2423,62.3192 C197.2903,63.3112 197.1213,64.0602 196.7363,64.5702 C196.3523,65.0802 195.7803,65.3352 195.0223,65.3352 C194.7813,65.3352 194.5623,65.3312 194.3643,65.3242 C194.1653,65.3172 193.9733,65.2992 193.7863,65.2712 C193.6003,65.2422 193.4173,65.2072 193.2353,65.1642 C193.0553,65.1222 192.8563,65.0672 192.6403,64.9942 C192.1943,64.8672 191.9213,64.6582 191.8193,64.3682 C191.7173,64.0782 191.7323,63.7282 191.8643,63.3182 C191.9843,62.9922 192.1713,62.7862 192.4233,62.7022 C192.6773,62.6162 192.9533,62.6242 193.2543,62.7232 C193.6633,62.8512 193.9603,62.9282 194.1463,62.9572 C194.3333,62.9852 194.5113,62.9992 194.6793,62.9992 C194.8123,62.9992 194.9233,62.9532 195.0143,62.8602 C195.1033,62.7702 195.1483,62.5392 195.1483,62.1712 L195.1483,58.3072 C194.4633,59.3832 193.7413,60.3112 192.9833,61.0882 C192.2253,61.8672 191.4263,62.5542 190.5833,63.1482 C190.1133,63.4732 189.7203,63.6182 189.4003,63.5832 C189.0823,63.5472 188.8393,63.3672 188.6713,63.0412 C188.2623,62.2062 188.5143,61.5332 189.4293,61.0252 C190.1013,60.6432 190.8063,60.0972 191.5393,59.3902 C192.2733,58.6822 193.0183,57.7912 193.7763,56.7152 L189.9153,56.7152 C189.2063,56.7152 188.8493,56.3402 188.8493,55.5892 C188.8493,55.1792 188.9313,54.8702 189.0943,54.6662 C189.2563,54.4612 189.5293,54.3582 189.9153,54.3582 L195.1483,54.3582 L195.1483,53.3602 C195.1483,52.9782 195.2453,52.6852 195.4373,52.4792 C195.6293,52.2742 195.8833,52.1722 196.1953,52.1722 C196.8933,52.1722 197.2423,52.6042 197.2423,53.4662 L197.2423,54.3582 L198.5223,54.3582 C198.9083,54.3582 199.1943,54.4392 199.3803,54.6022 C199.5663,54.7662 199.6603,55.0952 199.6603,55.5892 Z M188.6343,51.4482 C188.4773,51.4482 188.3633,51.4922 188.2913,51.5762 C188.2203,51.6612 188.1823,51.8242 188.1823,52.0662 L188.1823,64.9522 C188.1823,65.5322 188.3923,65.8222 188.8143,65.8222 L199.7683,65.8222 C199.9263,65.8222 200.0453,65.7442 200.1303,65.5892 C200.2143,65.4332 200.2563,65.2222 200.2563,64.9522 L200.2563,52.0442 C200.2563,51.8452 200.2073,51.6962 200.1113,51.5992 C200.0143,51.4992 199.8423,51.4482 199.5883,51.4482 L188.6343,51.4482 Z M202.2233,65.8022 C202.2233,66.6092 202.0853,67.1962 201.8073,67.5642 C201.5313,67.9322 201.0323,68.1152 200.3093,68.1152 L188.0753,68.1152 C187.3513,68.1152 186.8633,67.9322 186.6033,67.5642 C186.3453,67.1962 186.2163,66.6092 186.2163,65.8022 L186.2163,51.4062 C186.2163,50.6002 186.3363,50.0202 186.5773,49.6662 C186.8163,49.3122 187.2993,49.1352 188.0203,49.1352 L200.3093,49.1352 C201.0323,49.1352 201.5313,49.3122 201.8073,49.6662 C202.0853,50.0202 202.2233,50.6002 202.2233,51.4062 L202.2233,65.8022 Z" id="Fill-23" fill="#5BB8DE" mask="url(#mask-2)"></path>
                    <path d="M94.8644,12.9046 C94.8644,13.1396 94.9254,13.3436 95.0474,13.5176 C95.1684,13.6916 95.3184,13.8446 95.4964,13.9776 C95.6744,14.1106 95.8604,14.2226 96.0564,14.3156 C96.2524,14.4076 96.4274,14.4946 96.5854,14.5766 C96.9754,14.7806 97.3134,14.9856 97.6004,15.1896 C97.8874,15.3936 98.1254,15.6126 98.3114,15.8476 C98.4984,16.0836 98.6324,16.3496 98.7154,16.6456 C98.7984,16.9426 98.8344,17.2806 98.8254,17.6576 C98.8084,18.6706 98.5404,19.4846 98.0184,20.1036 C97.4974,20.7216 96.7014,21.0506 95.6344,21.0926 C95.2414,21.1126 94.8744,21.0596 94.5324,20.9316 C94.1884,20.8026 93.8904,20.6636 93.6374,20.5096 C93.4124,20.3776 93.2314,20.2256 93.0974,20.0576 C92.9634,19.8896 92.8644,19.7176 92.8044,19.5436 C92.7444,19.3696 92.7154,19.2016 92.7204,19.0376 C92.7244,18.8756 92.7604,18.7366 92.8314,18.6246 C92.9514,18.3986 93.0974,18.2736 93.2664,18.2486 C93.4364,18.2236 93.5944,18.2666 93.7434,18.3796 C93.8744,18.4816 94.0104,18.5906 94.1534,18.7086 C94.2974,18.8266 94.4494,18.9336 94.6094,19.0306 C94.7704,19.1276 94.9394,19.2076 95.1184,19.2676 C95.2964,19.3296 95.4894,19.3596 95.6984,19.3596 C95.8724,19.3596 96.0444,19.3246 96.2124,19.2526 C96.3824,19.1806 96.5324,19.0786 96.6624,18.9466 C96.7924,18.8136 96.8974,18.6466 96.9754,18.4476 C97.0524,18.2486 97.0924,18.0196 97.0924,17.7646 C97.0924,17.5196 97.0454,17.3056 96.9494,17.1206 C96.8544,16.9366 96.7394,16.7756 96.6034,16.6386 C96.4684,16.5006 96.3214,16.3846 96.1604,16.2926 C95.9994,16.2016 95.8544,16.1306 95.7244,16.0786 C95.3584,15.9256 95.0184,15.7596 94.7004,15.5806 C94.3844,15.4016 94.1074,15.1896 93.8744,14.9446 C93.6374,14.6976 93.4524,14.4076 93.3134,14.0706 C93.1744,13.7326 93.1044,13.3346 93.1044,12.8736 C93.1044,12.3836 93.1894,11.9516 93.3574,11.5786 C93.5274,11.2046 93.7524,10.8956 94.0294,10.6506 C94.3074,10.4046 94.6234,10.2206 94.9744,10.0986 C95.3264,9.9756 95.6854,9.9196 96.0504,9.9286 C96.4594,9.9406 96.8364,10.0156 97.1834,10.1596 C97.5314,10.3036 97.8214,10.4816 98.0514,10.6956 C98.2804,10.9116 98.4374,11.1436 98.5204,11.3936 C98.6024,11.6446 98.5874,11.8836 98.4734,12.1066 C98.4144,12.2186 98.3384,12.3086 98.2454,12.3766 C98.1544,12.4416 98.0594,12.4886 97.9604,12.5126 C97.8584,12.5386 97.7614,12.5416 97.6674,12.5216 C97.5704,12.5006 97.4914,12.4606 97.4314,12.3986 C97.3444,12.3276 97.2454,12.2476 97.1324,12.1606 C97.0194,12.0746 96.8984,11.9946 96.7724,11.9236 C96.6464,11.8516 96.5114,11.7906 96.3694,11.7386 C96.2264,11.6876 96.0804,11.6626 95.9314,11.6626 C95.7674,11.6626 95.6194,11.7006 95.4894,11.7776 C95.3584,11.8546 95.2484,11.9516 95.1574,12.0686 C95.0664,12.1866 94.9944,12.3196 94.9424,12.4676 C94.8894,12.6156 94.8644,12.7606 94.8644,12.9046" id="Fill-24" fill="#FEFEFE" mask="url(#mask-2)"></path>
                    <path d="M110.8039,19.8353 C110.8229,19.9893 110.8269,20.1383 110.8239,20.2803 C110.8199,20.4233 110.7909,20.5483 110.7399,20.6563 C110.6879,20.7633 110.6049,20.8503 110.4919,20.9163 C110.3779,20.9823 110.2219,21.0163 110.0219,21.0163 C109.7439,21.0253 109.5549,20.9513 109.4559,20.7933 C109.3549,20.6353 109.2829,20.3773 109.2409,20.0203 L108.6159,14.4833 C108.5799,14.2493 108.5289,14.1323 108.4579,14.1323 C108.3879,14.1323 108.3239,14.2493 108.2619,14.4833 L106.8029,20.3713 C106.7599,20.5663 106.6869,20.7223 106.5869,20.8393 C106.4879,20.9573 106.2989,21.0163 106.0219,21.0163 C105.8729,21.0163 105.7509,21.0033 105.6559,20.9773 C105.5609,20.9513 105.4819,20.9113 105.4209,20.8553 C105.3599,20.7993 105.3149,20.7313 105.2839,20.6563 C105.2529,20.5793 105.2259,20.4843 105.1999,20.3713 C104.9479,19.3813 104.6989,18.4013 104.4499,17.4363 C104.2019,16.4693 103.9569,15.4913 103.7129,14.4993 C103.6539,14.2533 103.5899,14.1323 103.5249,14.1323 C103.4599,14.1323 103.4089,14.2533 103.3739,14.4993 L102.7619,19.9273 C102.7189,20.2963 102.6339,20.5693 102.5079,20.7473 C102.3819,20.9263 102.1539,21.0163 101.8249,21.0163 C101.5539,21.0163 101.3669,20.9263 101.2639,20.7473 C101.1589,20.5693 101.1379,20.2653 101.1989,19.8353 L102.3199,11.1423 C102.3629,10.7823 102.4779,10.5073 102.6649,10.3143 C102.8519,10.1183 103.0839,10.0223 103.3619,10.0223 C103.6409,10.0223 103.8739,10.1033 104.0649,10.2673 C104.2569,10.4313 104.4119,10.7573 104.5339,11.2483 L106.0219,17.6573 L107.4669,11.2173 C107.5809,10.7373 107.7349,10.4183 107.9299,10.2603 C108.1259,10.1003 108.3549,10.0223 108.6159,10.0223 C108.8659,10.0223 109.0939,10.1213 109.2989,10.3203 C109.5029,10.5213 109.6309,10.8103 109.6829,11.1883 L110.8039,19.8353 Z" id="Fill-25" fill="#FEFEFE" mask="url(#mask-2)"></path>
                    <path d="M117.9582,16.7074 L116.9552,12.9044 L115.9522,16.7074 L117.9582,16.7074 Z M115.6252,18.4394 L115.0532,20.2034 C114.9742,20.4484 114.8662,20.6454 114.7262,20.7934 C114.5872,20.9414 114.3832,21.0164 114.1132,21.0164 C113.8452,21.0164 113.6292,20.9294 113.4692,20.7554 C113.3082,20.5814 113.2882,20.2844 113.4102,19.8654 L116.0952,10.6504 C116.1392,10.4864 116.2322,10.3414 116.3752,10.2144 C116.5182,10.0864 116.7112,10.0214 116.9552,10.0214 C117.1972,10.0214 117.3932,10.0864 117.5352,10.2144 C117.6782,10.3414 117.7722,10.4864 117.8152,10.6504 L120.5252,19.8964 C120.6312,20.2844 120.6032,20.5694 120.4412,20.7474 C120.2802,20.9264 120.0662,21.0164 119.7972,21.0164 C119.5262,21.0254 119.3272,20.9574 119.1972,20.8094 C119.0662,20.6604 118.9662,20.4844 118.8972,20.2804 L118.2702,18.4394 L115.6252,18.4394 Z" id="Fill-26" fill="#FEFEFE" mask="url(#mask-2)"></path>
                    <path d="M124.9455,14.638 L126.3125,14.638 C126.7915,14.638 127.1535,14.548 127.4015,14.368 C127.6495,14.191 127.7725,13.815 127.7725,13.242 C127.7725,12.976 127.7335,12.756 127.6555,12.582 C127.5785,12.408 127.4715,12.274 127.3375,12.176 C127.2015,12.079 127.0465,12.013 126.8685,11.977 C126.6895,11.942 126.5055,11.923 126.3125,11.923 L124.9455,11.923 L124.9455,14.638 Z M123.2515,11.188 C123.2515,10.972 123.2645,10.798 123.2965,10.665 C123.3275,10.533 123.3825,10.431 123.4585,10.36 C123.5375,10.288 123.6475,10.24 123.7925,10.214 C123.9345,10.189 124.1205,10.175 124.3455,10.175 L126.3125,10.175 C126.8255,10.175 127.2795,10.224 127.6745,10.321 C128.0705,10.418 128.4005,10.584 128.6665,10.82 C128.9305,11.055 129.1315,11.368 129.2655,11.762 C129.3995,12.156 129.4665,12.644 129.4665,13.227 C129.4665,14.117 129.2965,14.796 128.9535,15.265 C128.6095,15.737 128.1475,16.047 127.5645,16.201 C127.4775,16.223 127.3905,16.242 127.3035,16.263 C127.2165,16.283 127.1265,16.298 127.0305,16.308 L129.5855,19.268 C129.7585,19.472 129.8495,19.707 129.8585,19.974 C129.8665,20.24 129.7855,20.474 129.6115,20.678 C129.4375,20.883 129.2285,20.995 128.9855,21.016 C128.7415,21.035 128.5475,20.96 128.3995,20.786 L124.9455,16.508 L124.9455,20.219 C124.9455,20.423 124.8755,20.607 124.7365,20.771 C124.5975,20.934 124.3765,21.016 124.0725,21.016 C123.7665,21.016 123.5545,20.929 123.4335,20.755 C123.3115,20.581 123.2515,20.403 123.2515,20.219 L123.2515,11.188 Z" id="Fill-27" fill="#FEFEFE" mask="url(#mask-2)"></path>
                    <path d="M136.2326,11.9544 L136.2326,20.2194 C136.2326,20.4234 136.1666,20.6064 136.0366,20.7704 C135.9066,20.9344 135.6886,21.0164 135.3846,21.0164 C135.0806,21.0164 134.8636,20.9294 134.7336,20.7554 C134.6026,20.5814 134.5386,20.4024 134.5386,20.2194 L134.5386,11.9544 L132.8696,11.9544 C132.7136,11.9544 132.5616,11.8874 132.4146,11.7544 C132.2656,11.6224 132.1926,11.3924 132.1926,11.0644 C132.1926,10.7474 132.2606,10.5204 132.3996,10.3824 C132.5396,10.2444 132.6956,10.1754 132.8696,10.1754 L137.9016,10.1754 C138.0756,10.1754 138.2306,10.2444 138.3696,10.3824 C138.5096,10.5204 138.5786,10.7474 138.5786,11.0644 C138.5786,11.3924 138.5036,11.6224 138.3566,11.7544 C138.2106,11.8874 138.0566,11.9544 137.9016,11.9544 L136.2326,11.9544 Z" id="Fill-28" fill="#FEFEFE" mask="url(#mask-2)"></path>
                    <path d="M150.673,19.8353 C150.691,19.9893 150.696,20.1383 150.693,20.2803 C150.688,20.4233 150.66,20.5483 150.609,20.6563 C150.556,20.7633 150.474,20.8503 150.361,20.9163 C150.246,20.9823 150.091,21.0163 149.891,21.0163 C149.613,21.0253 149.424,20.9513 149.324,20.7933 C149.224,20.6353 149.152,20.3773 149.109,20.0203 L148.484,14.4833 C148.448,14.2493 148.397,14.1323 148.327,14.1323 C148.257,14.1323 148.193,14.2493 148.131,14.4833 L146.672,20.3713 C146.628,20.5663 146.556,20.7223 146.456,20.8393 C146.357,20.9573 146.167,21.0163 145.89,21.0163 C145.741,21.0163 145.619,21.0033 145.525,20.9773 C145.429,20.9513 145.351,20.9113 145.29,20.8553 C145.229,20.7993 145.184,20.7313 145.152,20.6563 C145.122,20.5793 145.094,20.4843 145.069,20.3713 C144.817,19.3813 144.568,18.4013 144.319,17.4363 C144.071,16.4693 143.826,15.4913 143.582,14.4993 C143.522,14.2533 143.459,14.1323 143.393,14.1323 C143.328,14.1323 143.278,14.2533 143.243,14.4993 L142.631,19.9273 C142.587,20.2963 142.503,20.5693 142.377,20.7473 C142.251,20.9263 142.023,21.0163 141.694,21.0163 C141.423,21.0163 141.236,20.9263 141.133,20.7473 C141.027,20.5693 141.007,20.2653 141.067,19.8353 L142.188,11.1423 C142.232,10.7823 142.346,10.5073 142.534,10.3143 C142.72,10.1183 142.953,10.0223 143.231,10.0223 C143.509,10.0223 143.743,10.1033 143.934,10.2673 C144.126,10.4313 144.281,10.7573 144.403,11.2483 L145.89,17.6573 L147.336,11.2173 C147.449,10.7373 147.604,10.4183 147.799,10.2603 C147.994,10.1003 148.223,10.0223 148.484,10.0223 C148.735,10.0223 148.963,10.1213 149.167,10.3203 C149.372,10.5213 149.5,10.8103 149.552,11.1883 L150.673,19.8353 Z" id="Fill-29" fill="#FEFEFE" mask="url(#mask-2)"></path>
                    <path d="M157.8293,16.7074 L156.8253,12.9044 L155.8223,16.7074 L157.8293,16.7074 Z M155.4953,18.4394 L154.9233,20.2034 C154.8443,20.4484 154.7363,20.6454 154.5963,20.7934 C154.4573,20.9414 154.2533,21.0164 153.9833,21.0164 C153.7153,21.0164 153.4993,20.9294 153.3393,20.7554 C153.1783,20.5814 153.1583,20.2844 153.2803,19.8654 L155.9653,10.6504 C156.0093,10.4864 156.1023,10.3414 156.2453,10.2144 C156.3883,10.0864 156.5813,10.0214 156.8253,10.0214 C157.0673,10.0214 157.2633,10.0864 157.4053,10.2144 C157.5493,10.3414 157.6423,10.4864 157.6853,10.6504 L160.3953,19.8964 C160.5013,20.2844 160.4733,20.5694 160.3113,20.7474 C160.1503,20.9264 159.9363,21.0164 159.6673,21.0164 C159.3963,21.0254 159.1973,20.9574 159.0673,20.8094 C158.9373,20.6604 158.8363,20.4844 158.7673,20.2804 L158.1413,18.4394 L155.4953,18.4394 Z" id="Fill-30" fill="#FEFEFE" mask="url(#mask-2)"></path>
                    <path d="M164.8156,15.4046 L166.1826,15.4046 C166.7396,15.4046 167.1196,15.2606 167.3236,14.9736 C167.5286,14.6876 167.6306,14.2226 167.6306,13.5796 C167.6306,13.2416 167.5926,12.9666 167.5196,12.7516 C167.4456,12.5376 167.3426,12.3646 167.2126,12.2376 C167.0836,12.1096 166.9316,12.0226 166.7576,11.9766 C166.5846,11.9296 166.3916,11.9076 166.1826,11.9076 L164.8156,11.9076 L164.8156,15.4046 Z M163.1216,11.1876 C163.1216,10.9716 163.1346,10.7986 163.1666,10.6656 C163.1976,10.5336 163.2556,10.4306 163.3426,10.3596 C163.4296,10.2886 163.5526,10.2396 163.7136,10.2146 C163.8746,10.1886 164.0856,10.1746 164.3456,10.1746 L166.1826,10.1746 C166.7576,10.1746 167.2416,10.2306 167.6356,10.3436 C168.0326,10.4566 168.3566,10.6456 168.6076,10.9116 C168.8596,11.1756 169.0426,11.5266 169.1556,11.9616 C169.2686,12.3956 169.3246,12.9296 169.3246,13.5646 C169.3246,14.1976 169.2646,14.7396 169.1426,15.1896 C169.0206,15.6396 168.8346,16.0076 168.5826,16.2926 C168.3306,16.5796 168.0056,16.7886 167.6116,16.9226 C167.2156,17.0546 166.7396,17.1206 166.1826,17.1206 L164.8156,17.1206 L164.8156,20.2186 C164.8156,20.4236 164.7496,20.6066 164.6196,20.7706 C164.4896,20.9336 164.2716,21.0156 163.9676,21.0156 C163.6636,21.0156 163.4466,20.9286 163.3166,20.7556 C163.1856,20.5816 163.1216,20.4026 163.1216,20.2186 L163.1216,11.1876 Z" id="Fill-31" fill="#FEFEFE" mask="url(#mask-2)"></path>
                    <path d="M99.5949,35.0921 L98.1999,35.0921 C97.8879,35.0921 97.6609,35.0291 97.5229,34.9001 C97.3839,34.7731 97.3139,34.5451 97.3139,34.2171 C97.3139,33.8911 97.3879,33.6551 97.5359,33.5131 C97.6839,33.3691 97.9089,33.2981 98.2129,33.2981 L100.3909,33.2981 C100.7469,33.2981 100.9859,33.4051 101.1069,33.6191 C101.2289,33.8351 101.2889,34.2071 101.2889,34.7381 C101.2889,35.3831 101.2219,35.9971 101.0869,36.5781 C100.9529,37.1611 100.7319,37.6761 100.4229,38.1201 C100.1159,38.5661 99.7169,38.9171 99.2309,39.1781 C98.7429,39.4391 98.1489,39.5691 97.4449,39.5691 C96.7579,39.5691 96.1409,39.4361 95.5949,39.1711 C95.0469,38.9051 94.5799,38.5301 94.1939,38.0431 C93.8069,37.5581 93.5109,36.9721 93.3059,36.2881 C93.1019,35.6041 93.0009,34.8371 93.0009,33.9881 C93.0009,33.1811 93.0979,32.4301 93.2929,31.7351 C93.4889,31.0391 93.7729,30.4361 94.1469,29.9241 C94.5209,29.4141 94.9799,29.0091 95.5219,28.7131 C96.0659,28.4161 96.6849,28.2681 97.3799,28.2681 C97.7799,28.2681 98.1539,28.3071 98.5009,28.3841 C98.8479,28.4591 99.2169,28.6311 99.6079,28.8971 C99.8429,29.0711 100.0609,29.2571 100.2589,29.4571 C100.4599,29.6561 100.6209,29.8561 100.7419,30.0541 C100.8639,30.2551 100.9319,30.4481 100.9449,30.6371 C100.9569,30.8261 100.8859,30.9881 100.7289,31.1201 C100.6519,31.2021 100.5579,31.2741 100.4489,31.3351 C100.3409,31.3971 100.2259,31.4321 100.1039,31.4431 C99.9819,31.4521 99.8599,31.4381 99.7389,31.3971 C99.6169,31.3561 99.5039,31.2741 99.4009,31.1521 C99.0529,30.7111 98.7239,30.4131 98.4149,30.2551 C98.1069,30.0961 97.7439,30.0171 97.3279,30.0171 C96.9619,30.0171 96.6179,30.1091 96.2979,30.2921 C95.9759,30.4761 95.6989,30.7371 95.4639,31.0741 C95.2289,31.4121 95.0419,31.8211 94.9039,32.3001 C94.7639,32.7811 94.6949,33.3181 94.6949,33.9101 C94.6949,34.5151 94.7619,35.0571 94.8969,35.5361 C95.0319,36.0171 95.2199,36.4261 95.4639,36.7641 C95.7059,37.1001 95.9979,37.3621 96.3369,37.5451 C96.6759,37.7291 97.0489,37.8211 97.4579,37.8211 C97.7519,37.8211 98.0289,37.7531 98.2849,37.6141 C98.5409,37.4771 98.7669,37.2871 98.9629,37.0461 C99.1589,36.8071 99.3139,36.5211 99.4259,36.1881 C99.5389,35.8561 99.5949,35.4911 99.5949,35.0921" id="Fill-32" fill="#FEFEFE" mask="url(#mask-2)"></path>
                    <path d="M105.8127,33.0375 L107.1797,33.0375 C107.6587,33.0375 108.0207,32.9475 108.2687,32.7685 C108.5167,32.5915 108.6397,32.2155 108.6397,31.6415 C108.6397,31.3755 108.6007,31.1555 108.5227,30.9815 C108.4457,30.8085 108.3387,30.6745 108.2047,30.5755 C108.0687,30.4785 107.9137,30.4135 107.7347,30.3765 C107.5567,30.3425 107.3727,30.3235 107.1797,30.3235 L105.8127,30.3235 L105.8127,33.0375 Z M104.1187,29.5885 C104.1187,29.3725 104.1317,29.1985 104.1637,29.0645 C104.1947,28.9335 104.2487,28.8315 104.3257,28.7605 C104.4047,28.6875 104.5147,28.6395 104.6597,28.6135 C104.8017,28.5885 104.9877,28.5745 105.2127,28.5745 L107.1797,28.5745 C107.6927,28.5745 108.1467,28.6235 108.5417,28.7205 C108.9377,28.8185 109.2677,28.9835 109.5327,29.2195 C109.7977,29.4545 109.9987,29.7685 110.1327,30.1625 C110.2667,30.5565 110.3337,31.0435 110.3337,31.6265 C110.3337,32.5165 110.1637,33.1955 109.8207,33.6655 C109.4767,34.1365 109.0147,34.4475 108.4317,34.6015 C108.3447,34.6225 108.2577,34.6415 108.1707,34.6635 C108.0837,34.6835 107.9937,34.6985 107.8977,34.7085 L110.4527,37.6675 C110.6257,37.8725 110.7167,38.1075 110.7257,38.3735 C110.7337,38.6405 110.6527,38.8745 110.4787,39.0785 C110.3047,39.2835 110.0957,39.3945 109.8527,39.4165 C109.6087,39.4355 109.4137,39.3595 109.2667,39.1865 L105.8127,34.9085 L105.8127,38.6185 C105.8127,38.8235 105.7427,39.0075 105.6037,39.1715 C105.4647,39.3335 105.2437,39.4165 104.9397,39.4165 C104.6337,39.4165 104.4217,39.3295 104.3007,39.1555 C104.1787,38.9815 104.1187,38.8025 104.1187,38.6185 L104.1187,29.5885 Z" id="Fill-33" fill="#FEFEFE" mask="url(#mask-2)"></path>
                    <path d="M117.1388,37.8216 C117.5988,37.8216 117.9838,37.7216 118.2918,37.5216 C118.6008,37.3226 118.8498,37.0496 119.0418,36.7016 C119.2328,36.3546 119.3678,35.9456 119.4458,35.4756 C119.5238,35.0056 119.5628,34.4996 119.5628,33.9576 C119.5628,33.4166 119.5198,32.9046 119.4328,32.4246 C119.3458,31.9436 119.2068,31.5246 119.0148,31.1676 C118.8248,30.8076 118.5738,30.5276 118.2658,30.3236 C117.9568,30.1186 117.5808,30.0166 117.1388,30.0166 C116.6968,30.0166 116.3198,30.1216 116.0108,30.3306 C115.7018,30.5406 115.4528,30.8206 115.2608,31.1746 C115.0708,31.5266 114.9318,31.9386 114.8448,32.4086 C114.7578,32.8796 114.7148,33.3796 114.7148,33.9106 C114.7148,34.3906 114.7538,34.8676 114.8318,35.3376 C114.9098,35.8076 115.0438,36.2266 115.2358,36.5936 C115.4268,36.9626 115.6768,37.2596 115.9858,37.4836 C116.2938,37.7096 116.6778,37.8216 117.1388,37.8216 M117.1388,28.2676 C117.8418,28.2676 118.4528,28.4136 118.9698,28.7056 C119.4878,28.9966 119.9148,29.3956 120.2538,29.9016 C120.5928,30.4076 120.8448,31.0036 121.0088,31.6876 C121.1748,32.3736 121.2568,33.1136 121.2568,33.9106 C121.2568,34.7086 121.1748,35.4526 121.0088,36.1426 C120.8448,36.8326 120.5928,37.4306 120.2538,37.9366 C119.9148,38.4426 119.4878,38.8426 118.9698,39.1326 C118.4528,39.4236 117.8418,39.5686 117.1388,39.5686 C116.4608,39.5686 115.8658,39.4286 115.3538,39.1466 C114.8408,38.8666 114.4098,38.4756 114.0628,37.9736 C113.7158,37.4736 113.4548,36.8756 113.2818,36.1806 C113.1078,35.4856 113.0208,34.7286 113.0208,33.9106 C113.0208,33.1246 113.0978,32.3856 113.2548,31.6956 C113.4108,31.0066 113.6568,30.4076 113.9918,29.9016 C114.3258,29.3956 114.7508,28.9966 115.2678,28.7056 C115.7848,28.4136 116.4088,28.2676 117.1388,28.2676" id="Fill-34" fill="#FEFEFE" mask="url(#mask-2)"></path>
                    <path d="M124.0861,29.2191 C124.0861,29.0351 124.1501,28.8571 124.2811,28.6831 C124.4111,28.5091 124.6291,28.4221 124.9331,28.4221 C125.2361,28.4221 125.4541,28.5031 125.5841,28.6671 C125.7151,28.8311 125.7801,29.0151 125.7801,29.2191 L125.7801,34.8931 C125.7801,35.3221 125.8101,35.7101 125.8711,36.0571 C125.9321,36.4051 126.0341,36.7011 126.1771,36.9481 C126.3211,37.1931 126.5161,37.3811 126.7641,37.5151 C127.0121,37.6481 127.3261,37.7131 127.7081,37.7131 C128.0831,37.7131 128.3911,37.6511 128.6351,37.5221 C128.8771,37.3941 129.0701,37.2101 129.2151,36.9701 C129.3571,36.7301 129.4561,36.4361 129.5081,36.0881 C129.5601,35.7401 129.5861,35.3431 129.5861,34.8931 L129.5861,29.2191 C129.5861,29.0351 129.6471,28.8571 129.7691,28.6831 C129.8911,28.5091 130.1111,28.4221 130.4331,28.4221 C130.7361,28.4221 130.9541,28.5031 131.0841,28.6671 C131.2151,28.8311 131.2801,29.0151 131.2801,29.2191 L131.2801,35.8431 C131.2801,36.4561 131.1781,36.9901 130.9741,37.4461 C130.7711,37.9001 130.5001,38.2821 130.1661,38.5881 C129.8311,38.8951 129.4491,39.1221 129.0191,39.2711 C128.5891,39.4191 128.1481,39.4931 127.6961,39.4931 C127.2531,39.4931 126.8151,39.4191 126.3861,39.2711 C125.9551,39.1221 125.5711,38.8981 125.2321,38.5951 C124.8941,38.2941 124.6171,37.9151 124.4041,37.4611 C124.1911,37.0061 124.0861,36.4661 124.0861,35.8431 L124.0861,29.2191 Z" id="Fill-35" fill="#FEFEFE" mask="url(#mask-2)"></path>
                    <path d="M135.9465,33.8041 L137.3145,33.8041 C137.8705,33.8041 138.2505,33.6611 138.4555,33.3741 C138.6595,33.0881 138.7615,32.6231 138.7615,31.9801 C138.7615,31.6421 138.7235,31.3661 138.6515,31.1521 C138.5775,30.9371 138.4745,30.7651 138.3435,30.6371 C138.2145,30.5101 138.0625,30.4231 137.8885,30.3761 C137.7155,30.3301 137.5225,30.3081 137.3145,30.3081 L135.9465,30.3081 L135.9465,33.8041 Z M134.2525,29.5881 C134.2525,29.3721 134.2665,29.1991 134.2975,29.0651 C134.3285,28.9331 134.3865,28.8311 134.4735,28.7601 C134.5605,28.6881 134.6835,28.6391 134.8445,28.6141 C135.0055,28.5881 135.2175,28.5751 135.4775,28.5751 L137.3145,28.5751 C137.8885,28.5751 138.3725,28.6311 138.7675,28.7441 C139.1645,28.8571 139.4875,29.0451 139.7385,29.3121 C139.9905,29.5761 140.1735,29.9271 140.2865,30.3621 C140.3995,30.7951 140.4565,31.3291 140.4565,31.9641 C140.4565,32.5981 140.3955,33.1401 140.2735,33.5901 C140.1515,34.0391 139.9655,34.4071 139.7135,34.6931 C139.4615,34.9801 139.1365,35.1891 138.7425,35.3221 C138.3465,35.4541 137.8705,35.5211 137.3145,35.5211 L135.9465,35.5211 L135.9465,38.6181 C135.9465,38.8241 135.8815,39.0071 135.7505,39.1711 C135.6205,39.3331 135.4025,39.4161 135.0985,39.4161 C134.7955,39.4161 134.5775,39.3291 134.4475,39.1561 C134.3165,38.9821 134.2525,38.8021 134.2525,38.6181 L134.2525,29.5881 Z" id="Fill-36" fill="#FEFEFE" mask="url(#mask-2)"></path>
                </g>
            </g>
        </g>
    </g>
</svg>