<?xml version="1.0" encoding="UTF-8"?>
<svg width="22px" height="22px" viewBox="0 0 22 22" version="1.1" xmlns="http://www.w3.org/2000/svg" xmlns:xlink="http://www.w3.org/1999/xlink">
    <!-- Generator: Sketch 49.2 (51160) - http://www.bohemiancoding.com/sketch -->
    <title>13</title>
    <desc>Created with Sketch.</desc>
    <defs></defs>
    <g id="Page-1" stroke="none" stroke-width="1" fill="none" fill-rule="evenodd">
        <g id="集团官网首页" transform="translate(-1171.000000, -2830.000000)" fill="#FFFFFF" fill-rule="nonzero">
            <g id="链接-copy-2" transform="translate(1105.000000, 2830.000000)">
                <g id="Group-12-Copy" transform="translate(66.000000, 0.000000)">
                    <path d="M13.5065977,8.7420063 C13.3408239,8.57685764 13.1641247,8.42798587 12.9820452,8.2899471 L12.9817157,8.290248 C12.7943108,8.110628 12.5398442,8 12.2592996,8 C11.6834968,8 11.2167551,8.46516278 11.2167551,9.03895652 C11.2167551,9.29284829 11.3082752,9.52540232 11.4601042,9.70587037 L11.4600768,9.70587037 C11.4601042,9.70589772 11.4601591,9.70595244 11.460214,9.70597979 C11.5331502,9.79267119 11.6199213,9.86740801 11.7173434,9.9265792 C11.8156438,10.0073617 11.9121325,10.0869132 12.0023624,10.1768326 L12.0883101,10.2625118 C13.1688187,11.3379614 12.8462473,13.1908433 11.7657387,14.2676607 L7.15497935,18.861184 C6.07449821,19.9366336 4.3178825,19.9366336 3.23734647,18.861184 L3.15071254,18.7747935 C2.07014903,17.6980309 2.07014903,15.946175 3.15071254,14.8720112 L5.18770816,12.8427099 C5.44906485,12.63598 5.61684264,12.3168987 5.61684264,11.9585888 C5.61684264,11.3353626 5.10988585,10.8301505 4.48450738,10.8301505 C4.248515,10.8301505 4.02945959,10.9021517 3.84806635,11.0252267 C3.8474899,11.0240231 3.84688598,11.0228741 3.84628207,11.0216431 L3.82456868,11.0418866 C3.74438563,11.0993344 3.67188872,11.1667124 3.609274,11.2426529 L1.49239727,13.2166675 C-0.497465756,15.2010501 -0.497465756,18.4465206 1.49239727,20.4281402 L1.57834495,20.5137647 C3.56820797,22.4954118 6.82348651,22.4954118 8.81334954,20.5137647 L13.4227363,15.9188736 C15.4098543,13.9359682 15.5783458,10.8079374 13.5912553,8.82629037 L13.5065977,8.7420063 Z" id="Shape"></path>
                    <path d="M20.5048787,1.6216363 L20.4187636,1.53333121 C18.4250532,-0.511110405 15.1634355,-0.511110405 13.1696975,1.53333121 L8.55133462,6.27052772 C6.55759665,8.31496933 6.44780066,11.2672526 8.44153864,13.3130198 L8.52627847,13.3985891 C8.61682166,13.4914067 8.71080285,13.5789221 8.80673683,13.6628557 C8.87618444,13.7423894 8.95776132,13.8104726 9.04844204,13.8643131 C9.04912965,13.8648771 9.04984476,13.8654694 9.05053234,13.8660335 L9.05083488,13.8657515 C9.19536843,13.9509823 9.36284035,14 9.54156137,14 C10.0861957,14 10.52769,13.5472214 10.52769,12.9887927 C10.52769,12.8311635 10.4924849,12.6819671 10.4297207,12.5489595 C10.2993518,12.2487899 10.0553087,12.0660596 9.88651662,11.8929467 L9.80174926,11.8074338 C8.71916404,10.6973168 9.13026641,9.08450118 10.2128517,7.97438423 L14.8339374,3.2385415 C15.9138548,2.12836816 17.6744963,2.12836816 18.7571365,3.2385415 L18.8433066,3.32543639 C19.9259193,4.43563793 19.9259193,6.24246528 18.8433066,7.35122846 L16.8090277,9.43865218 C16.5322824,9.64890909 16.3528187,9.98616621 16.3528187,10.3664337 C16.3528187,11.0037476 16.8566646,11.5204352 17.4782002,11.5204352 C17.6945192,11.5204352 17.8965086,11.4577107 18.0680236,11.3492401 C18.0693163,11.3514964 18.0705265,11.3535834 18.0718192,11.3558679 L18.1033662,11.3260005 C18.2005654,11.2592711 18.2869005,11.17734 18.3594835,11.0836762 L20.5034209,9.05508494 C22.4986167,7.01067147 22.4986167,3.66604969 20.5048787,1.6216363 Z" id="Shape"></path>
                </g>
            </g>
        </g>
    </g>
</svg>