<?xml version="1.0" encoding="UTF-8"?>
<svg width="49px" height="49px" viewBox="0 0 49 49" version="1.1" xmlns="http://www.w3.org/2000/svg" xmlns:xlink="http://www.w3.org/1999/xlink">
    <!-- Generator: Sketch 49.2 (51160) - http://www.bohemiancoding.com/sketch -->
    <title>14</title>
    <desc>Created with Sketch.</desc>
    <defs></defs>
    <g id="Page-1" stroke="none" stroke-width="1" fill="none" fill-rule="evenodd">
        <g id="集团官网首页" transform="translate(-155.000000, -4657.000000)" fill="#FFFFFF" fill-rule="nonzero">
            <g id="向右-copy-3" transform="translate(179.500000, 4681.500000) rotate(-180.000000) translate(-179.500000, -4681.500000) translate(155.000000, 4657.000000)">
                <g id="Group-13">
                    <path d="M24.5,49 C18.0340206,49 11.9216495,46.4742268 7.32474227,41.9783505 C6.7185567,41.3721649 6.7185567,40.4123711 7.32474227,39.856701 C7.93092784,39.2505155 8.89072165,39.2505155 9.44639175,39.856701 C13.4876289,43.8474227 18.842268,46.0195876 24.5,46.0195876 C36.3206186,46.0195876 45.9690722,36.371134 45.9690722,24.5505155 C45.9690722,12.7298969 36.3206186,3.03092784 24.5,3.03092784 C12.6793814,3.03092784 3.03092784,12.6793814 3.03092784,24.5 C3.03092784,25.3587629 2.3742268,26.0154639 1.51546392,26.0154639 C0.656701031,26.0154639 0,25.3587629 0,24.5 C0,11.0123711 11.0123711,0 24.5,0 C37.9876289,0 49,11.0123711 49,24.5 C49,37.9876289 37.9876289,49 24.5,49 Z" id="Shape"></path>
                    <path d="M36.5462185,23.4157609 L28.7815126,15.4646739 C28.1764706,14.8451087 27.2184874,14.8451087 26.6638655,15.4646739 C26.0588235,16.0842391 26.0588235,17.0652174 26.6638655,17.6331522 L31.8067227,22.951087 L14.512605,22.951087 C13.6554622,22.951087 13,23.6222826 13,24.5 C13,25.3777174 13.6554622,26.048913 14.512605,26.048913 L31.8067227,26.048913 L26.6638655,31.3668478 C26.0588235,31.986413 26.0588235,32.9673913 26.6638655,33.5353261 C26.9663866,33.8451087 27.3697479,34 27.7226891,34 C28.0756303,34 28.4789916,33.8451087 28.7815126,33.5353261 L36.5462185,25.5842391 C36.8487395,25.2744565 37,24.9130435 37,24.5 C37,24.0869565 36.8487395,23.673913 36.5462185,23.4157609 Z" id="Shape"></path>
                </g>
            </g>
        </g>
    </g>
</svg>