<?xml version="1.0" encoding="UTF-8"?>
<svg width="19px" height="34px" viewBox="0 0 19 34" version="1.1" xmlns="http://www.w3.org/2000/svg" xmlns:xlink="http://www.w3.org/1999/xlink">
    <!-- Generator: Sketch 49.2 (51160) - http://www.bohemiancoding.com/sketch -->
    <title>8</title>
    <desc>Created with Sketch.</desc>
    <defs></defs>
    <g id="Page-1" stroke="none" stroke-width="1" fill="none" fill-rule="evenodd">
        <g id="集团官网首页" transform="translate(-1844.000000, -617.000000)">
            <g id="Group-2-Copy" transform="translate(1844.000000, 617.000000)">
                <g id="Group-9">
                    <path d="M14.471178,23.798091 L18.1052632,23.798091 L14.9799499,26.5 L14.471178,23.798091 Z M25.0506968,7.5 L-6.05069673,7.5 C-6.85110274,7.5 -7.5,8.04434196 -7.5,8.71578041 L-7.5,22.5823106 C-7.5,23.2537491 -6.85110274,23.798091 -6.05069673,23.798091 L25.0506968,23.798091 C25.8511028,23.798091 26.5,23.2537491 26.5,22.5823106 L26.5,8.71578041 C26.5,8.04434196 25.8511027,7.5 25.0506968,7.5 Z" id="Shape" fill="#5BB8DE" fill-rule="nonzero" transform="translate(9.500000, 17.000000) scale(1, -1) rotate(90.000000) translate(-9.500000, -17.000000) "></path>
                    <g id="Group" transform="translate(5.000000, 3.000000)" fill="#FFFFFF">
                        <path d="M9.636,8.8287474 L9.636,12.7287474 L8.52,12.7287474 L8.52,12.2727474 L3.684,12.2727474 L3.684,12.7287474 L2.58,12.7287474 L2.58,8.8287474 L9.636,8.8287474 Z M3.684,11.2407474 L8.52,11.2407474 L8.52,9.8487474 L3.684,9.8487474 L3.684,11.2407474 Z M4.332,3.5727474 L5.448,3.8127474 C5.304,4.0287474 5.148,4.2447474 5.004,4.4487474 L9.3,4.4487474 L9.3,5.3607474 C8.868,5.9847474 8.244,6.5367474 7.404,7.0167474 C8.628,7.4487474 9.984,7.7007474 11.472,7.7847474 L11.22,8.8167474 C9.324,8.7087474 7.644,8.3127474 6.18,7.6287474 C4.788,8.2167474 3.012,8.6847474 0.876,9.0447474 L0.444,8.0367474 C2.268,7.7727474 3.792,7.4247474 5.016,7.0047474 C4.512,6.6927474 4.056,6.3447474 3.624,5.9727474 C3.18,6.3567474 2.712,6.7167474 2.22,7.0287474 L1.488,6.1527474 C2.592,5.5287474 3.54,4.6767474 4.332,3.5727474 Z M6.216,6.5247474 C6.912,6.1887474 7.488,5.8287474 7.92,5.4207474 L4.44,5.4207474 C4.992,5.8527474 5.58,6.2127474 6.216,6.5247474 Z M10.98,2.4207474 L10.98,4.8447474 L9.828,4.8447474 L9.828,3.4407474 L2.172,3.4407474 L2.172,4.8447474 L1.02,4.8447474 L1.02,2.4207474 L5.304,2.4207474 C5.184,2.1807474 5.064,1.9407474 4.92,1.7247474 L6.18,1.5327474 C6.3,1.7967474 6.42,2.0847474 6.54,2.4207474 L10.98,2.4207474 Z M2.304,19.8767474 L2.304,21.6287474 L3.984,21.6287474 L3.984,19.8767474 L2.304,19.8767474 Z M3.984,18.8567474 L3.984,17.0807474 L2.304,17.0807474 L2.304,18.8567474 L3.984,18.8567474 Z M2.28,22.6607474 C2.196,24.2927474 1.908,25.6487474 1.416,26.7167474 L0.552,25.9367474 C1.032,24.8927474 1.272,23.5607474 1.284,21.9407474 L1.284,16.0487474 L5.016,16.0487474 L5.016,25.4327474 C5.016,26.2487474 4.644,26.6567474 3.912,26.6567474 L2.952,26.6567474 L2.676,25.6487474 C3.012,25.6847474 3.312,25.7087474 3.6,25.7087474 C3.852,25.7087474 3.984,25.4927474 3.984,25.0727474 L3.984,22.6607474 L2.28,22.6607474 Z M6.9,21.4727474 L6.9,25.7567474 C7.524,25.4207474 8.052,24.9887474 8.496,24.4847474 C7.8,23.5967474 7.32,22.5887474 7.056,21.4727474 L6.9,21.4727474 Z M6.9,25.7927474 L6.9,26.7047474 L5.832,26.7047474 L5.832,16.0487474 L10.884,16.0487474 C10.884,17.6087474 10.812,18.6407474 10.668,19.1567474 C10.524,19.6607474 10.068,19.9127474 9.3,19.9127474 L8.292,19.9127474 L7.992,18.9527474 C8.184,18.9527474 8.448,18.9647474 8.784,18.9647474 C9.036,18.9647474 9.228,18.9407474 9.348,18.9047474 C9.468,18.8687474 9.564,18.7607474 9.636,18.5927474 C9.708,18.3887474 9.756,17.8847474 9.78,17.0807474 L6.9,17.0807474 L6.9,20.4647474 L10.956,20.4647474 L10.956,21.4247474 C10.74,22.6007474 10.38,23.6087474 9.876,24.4367474 C10.368,24.9047474 10.944,25.3247474 11.592,25.7087474 L11.028,26.6687474 C10.344,26.2607474 9.744,25.8047474 9.24,25.3127474 C8.748,25.8647474 8.16,26.3207474 7.488,26.6807474 L6.9,25.7927474 Z M8.028,21.4727474 C8.268,22.2527474 8.628,22.9607474 9.12,23.5967474 C9.48,22.9727474 9.756,22.2647474 9.948,21.4727474 L8.028,21.4727474 Z" id="客服"></path>
                    </g>
                </g>
            </g>
        </g>
    </g>
</svg>