<svg xmlns="http://www.w3.org/2000/svg" width="24" height="19" viewBox="0 0 24 19">
  <path fill="#979797" d="M23.5462185,8.41576087 L15.7815126,0.464673913 C15.1764706,-0.154891304 14.2184874,-0.154891304 13.6638655,0.464673913 C13.0588235,1.08423913 13.0588235,2.06521739 13.6638655,2.63315217 L18.8067227,7.95108696 L1.51260504,7.95108696 C0.655462185,7.95108696 0,8.62228261 0,9.5 C0,10.3777174 0.655462185,11.048913 1.51260504,11.048913 L18.8067227,11.048913 L13.6638655,16.3668478 C13.0588235,16.986413 13.0588235,17.9673913 13.6638655,18.5353261 C13.9663866,18.8451087 14.3697479,19 14.7226891,19 C15.0756303,19 15.4789916,18.8451087 15.7815126,18.5353261 L23.5462185,10.5842391 C23.8487395,10.2744565 24,9.91304348 24,9.5 C24,9.08695652 23.8487395,8.67391304 23.5462185,8.41576087 Z"/>
</svg>
