<?xml version="1.0" encoding="UTF-8"?>
<svg width="196px" height="234px" viewBox="0 0 196 234" version="1.1" xmlns="http://www.w3.org/2000/svg" xmlns:xlink="http://www.w3.org/1999/xlink">
    <!-- Generator: Sketch 49.3 (51167) - http://www.bohemiancoding.com/sketch -->
    <title>PClogoq@3x</title>
    <desc>Created with Sketch.</desc>
    <defs>
        <linearGradient x1="-54.5555018%" y1="49.9923313%" x2="94.3758865%" y2="49.9923313%" id="linearGradient-1">
            <stop stop-color="#11347C" offset="0%"></stop>
            <stop stop-color="#0E5CAB" offset="50%"></stop>
            <stop stop-color="#27A9DB" offset="100%"></stop>
        </linearGradient>
        <linearGradient x1="-87.4284935%" y1="0%" x2="165.712636%" y2="64.7822192%" id="linearGradient-2">
            <stop stop-color="#0F5FAD" offset="0%"></stop>
            <stop stop-color="#136BB4" offset="44.8296538%"></stop>
            <stop stop-color="#27A9DB" offset="100%"></stop>
        </linearGradient>
    </defs>
    <g id="Page-1" stroke="none" stroke-width="1" fill="none" fill-rule="evenodd">
        <g id="首页" transform="translate(-176.000000, -69.000000)" fill-rule="nonzero">
            <g id="PClogoq" transform="translate(175.000000, 69.000000)">
                <path d="M134.61,93.68 L113.42,72.48 C108.718802,79.5932978 100.183234,83.1579443 91.8193512,81.5009207 C83.455468,79.8438971 76.9237258,73.2941673 75.2897098,64.9257588 C73.6556939,56.5573503 77.2438004,48.0316182 84.37,43.35 L63.18,22.16 C43.7322128,38.4766753 39.3394574,66.6567151 52.8982671,88.1185183 C66.4570769,109.580321 93.7925572,117.715582 116.88,107.16 L149.45,114.16 C150.395283,114.375315 151.368223,113.934424 151.829527,113.081711 C152.290831,112.228999 152.127472,111.173389 151.43,110.5 L134.61,93.68 Z" id="Shape" fill="url(#linearGradient-1)"></path>
                <path d="M95.84,39.93 C107.43798,39.93 116.84,49.3320203 116.84,60.93 C116.831693,61.9920396 116.741425,63.0518538 116.57,64.1 L139.35,86.88 C144.060678,79.067387 146.562932,70.1228657 146.59,61 L146.59,3.16 C146.607679,2.18623213 145.971509,1.3210746 145.036748,1.04765685 C144.101986,0.774239104 143.099866,1.16019688 142.59,1.99 L129.2,22.73 C112.758523,8.2909985 88.7436629,6.09826696 69.89,17.42 L92.67,40.2 C93.7181998,40.029007 94.7779807,39.9387417 95.84,39.93 Z" id="Shape" fill="url(#linearGradient-2)"></path>
                <path d="M1.78,232.51 L6.33,232.51 L6.84,232.51 C6.99629248,232.494687 7.15370752,232.494687 7.31,232.51 C7.43180203,232.52164 7.55043367,232.555535 7.66,232.61 C7.75573885,232.664602 7.8105399,232.77029 7.8,232.88 C7.8,233.04 7.8,233.14 7.67,233.18 C7.53590294,233.22981 7.39268001,233.250271 7.25,233.24 L1.58,233.24 C1.42186296,233.255468 1.26316834,233.216676 1.13,233.13 C1.04,233.07 1,232.9 1,232.64 L1,222.32 C0.985343732,222.155593 1.02390589,221.990827 1.11,221.85 C1.24337192,221.74634 1.41231649,221.699611 1.58,221.72 L7.08,221.72 C7.22122276,221.711717 7.36225014,221.739234 7.49,221.8 C7.57813204,221.866099 7.63,221.969835 7.63,222.08 C7.63,222.190165 7.57813204,222.293901 7.49,222.36 C7.36225014,222.420766 7.22122276,222.448283 7.08,222.44 L1.78,222.44 L1.78,226.92 L6.91,226.92 C7.05693485,226.906924 7.20479935,226.930995 7.34,226.99 C7.42,226.99 7.46,227.14 7.46,227.3 C7.47228422,227.405157 7.42628657,227.508652 7.34,227.57 C7.20355301,227.624652 7.05673594,227.648552 6.91,227.64 L1.78,227.64 L1.78,232.51 Z" id="Shape" fill="#FFFFFF"></path>
                <path d="M27.38,221.72 C28.1057724,221.701437 28.8255605,221.855677 29.48,222.17 C30.0581735,222.461616 30.5586317,222.886662 30.94,223.41 C31.3426958,223.954728 31.6348567,224.573022 31.8,225.23 C31.9914477,225.954293 32.0856084,226.700853 32.08,227.45 C32.0832978,228.191795 31.9925751,228.931017 31.81,229.65 C31.6433745,230.309014 31.3587826,230.932406 30.97,231.49 C30.1738992,232.626012 28.8562505,233.281071 27.47,233.23 L24.28,233.23 C24.1670534,233.243241 24.0529466,233.243241 23.94,233.23 C23.8762293,233.222223 23.8166392,233.194181 23.77,233.15 C23.7261251,233.100788 23.7044272,233.035694 23.71,232.97 C23.704316,232.866745 23.704316,232.763255 23.71,232.66 L23.71,222.32 C23.7041284,222.21675 23.7041284,222.11325 23.71,222.01 C23.7044272,221.944306 23.7261251,221.879212 23.77,221.83 C23.8166392,221.785819 23.8762293,221.757777 23.94,221.75 C24.0529466,221.736759 24.1670534,221.736759 24.28,221.75 L27.38,221.72 Z M24.48,232.49 L27.48,232.49 C28.5791043,232.536651 29.631793,232.043903 30.3,231.17 C31.0348993,230.055724 31.386013,228.732025 31.3,227.4 C31.3955559,226.078575 31.016106,224.766458 30.23,223.7 C29.3970247,222.818324 28.2089836,222.362234 27,222.46 L24.48,222.46 L24.48,232.49 Z" id="Shape" fill="#FFFFFF"></path>
                <path d="M48.16,222.05 C48.16,221.68 48.29,221.5 48.55,221.5 C48.81,221.5 48.94,221.68 48.94,222.05 L48.94,228.32 C48.9347823,228.915884 48.9782603,229.511197 49.07,230.1 C49.1342004,230.595572 49.3084559,231.070504 49.58,231.49 C49.8462432,231.88497 50.2214275,232.194149 50.66,232.38 C51.2444486,232.613313 51.8710977,232.722296 52.5,232.7 C53.4394459,232.767558 54.3692933,232.474298 55.1,231.88 C55.7217117,231.273422 56.050004,230.427157 56,229.56 L56,222.05 C56,221.68 56.13,221.5 56.39,221.5 C56.65,221.5 56.78,221.68 56.78,222.05 L56.78,229.6 C56.7885817,230.142576 56.6829628,230.680892 56.47,231.18 C56.2768433,231.650569 55.979366,232.07114 55.6,232.41 C55.207803,232.761573 54.7486165,233.030283 54.25,233.2 C53.6805513,233.394665 53.0817293,233.489394 52.48,233.48 C51.8778091,233.484593 51.2792398,233.386522 50.71,233.19 C50.2058187,233.014605 49.7405273,232.742902 49.34,232.39 C48.9607723,232.048817 48.6604688,231.629075 48.46,231.16 C48.2567093,230.665287 48.1546978,230.134827 48.16,229.6 L48.16,222.05 Z" id="Shape" fill="#FFFFFF"></path>
                <path d="M78.06,233.57 C77.2700465,233.581159 76.4854685,233.438508 75.75,233.15 C75.0831724,232.883258 74.485024,232.469681 74,231.94 C73.496125,231.378034 73.1147064,230.717362 72.88,230 C72.6086252,229.17083 72.4768324,228.30235 72.49,227.43 C72.4927552,226.674054 72.6211727,225.923826 72.87,225.21 C73.0843508,224.490198 73.4227685,223.813362 73.87,223.21 C74.3143018,222.637896 74.8728112,222.164525 75.51,221.82 C76.1664758,221.46376 76.9031452,221.281314 77.65,221.29 C78.9122949,221.274925 80.1324671,221.743672 81.06,222.6 C81.2226578,222.74013 81.3262625,222.936621 81.35,223.15 C81.35,223.36 81.22,223.47 80.97,223.47 C80.8037653,223.43603 80.6489073,223.360322 80.52,223.25 C80.31,223.1 80.06,222.94 79.76,222.76 C79.4434543,222.561682 79.1085816,222.394246 78.76,222.26 C78.3917237,222.110551 77.9974222,222.03577 77.6,222.04 C76.9688854,222.029856 76.3479561,222.199831 75.81,222.53 C75.2743597,222.850889 74.8085087,223.275935 74.44,223.78 C73.6679058,224.825947 73.2477315,226.089971 73.24,227.39 C73.2272905,228.156971 73.3421905,228.920718 73.58,229.65 C73.7920635,230.279779 74.1325842,230.858664 74.58,231.35 C74.9975147,231.814503 75.5133698,232.180043 76.09,232.42 C76.7242752,232.679059 77.4050244,232.804997 78.09,232.79 C79.0209344,232.806321 79.9189431,232.445675 80.58,231.79 C80.7169864,231.630254 80.903614,231.521095 81.11,231.48 C81.2114145,231.483592 81.3062774,231.531024 81.37,231.61 C81.4290859,231.688248 81.4638614,231.782142 81.47,231.88 C81.47,231.99 81.37,232.14 81.19,232.33 C80.9645465,232.544649 80.7124896,232.729491 80.44,232.88 C80.0937905,233.073722 79.7285249,233.231222 79.35,233.35 C78.9347691,233.492778 78.4990829,233.567081 78.06,233.57 Z" id="Shape" fill="#FFFFFF"></path>
                <path d="M98.46,229.94 L97.8,231.94 C97.74,232.1 97.68,232.27 97.63,232.45 L97.46,232.94 C97.4119344,233.072517 97.3445389,233.197198 97.26,233.31 C97.2002124,233.395003 97.1038763,233.446876 97,233.45 C96.8626157,233.467899 96.7281116,233.400647 96.66,233.28 C96.5933333,233.166667 96.6133333,232.946667 96.72,232.62 L100.34,222.09 C100.40894,221.763759 100.70729,221.537865 101.04,221.56 C101.381119,221.531112 101.691838,221.756703 101.77,222.09 L105.38,232.64 C105.38,232.73 105.44,232.82 105.47,232.91 C105.489676,232.99555 105.489676,233.08445 105.47,233.17 C105.466263,233.250599 105.430217,233.326296 105.37,233.38 C105.291314,233.434973 105.195484,233.459818 105.1,233.45 C104.86,233.45 104.7,233.28 104.62,232.92 L103.62,229.98 L98.46,229.94 Z M103.39,229.2 L101.05,222.34 L98.72,229.2 L103.39,229.2 Z" id="Shape" fill="#FFFFFF"></path>
                <path d="M125.13,222.47 L125.13,232.85 C125.140694,232.999239 125.120263,233.149073 125.07,233.29 C125.07,233.36 124.92,233.4 124.74,233.4 C124.56,233.4 124.46,233.4 124.42,233.29 C124.360159,233.151518 124.336088,233.000215 124.35,232.85 L124.35,222.47 L121.27,222.47 C121.125281,222.482973 120.979816,222.455265 120.85,222.39 C120.768809,222.316662 120.727871,222.208735 120.74,222.1 C120.74,221.85 120.91,221.72 121.27,221.72 L128.27,221.72 C128.411848,221.711238 128.552578,221.749938 128.67,221.83 C128.75,221.90148 128.797023,222.002759 128.8,222.11 C128.807898,222.232319 128.740589,222.34714 128.63,222.4 C128.515914,222.447257 128.393482,222.471063 128.27,222.47 L125.13,222.47 Z" id="Shape" fill="#FFFFFF"></path>
                <path d="M145.52,233 C145.52,233.24 145.39,233.36 145.12,233.36 C145.019439,233.376922 144.916834,233.344901 144.843746,233.273789 C144.770658,233.202676 144.735839,233.100987 144.75,233 L144.75,221.86 C144.735839,221.759013 144.770658,221.657324 144.843746,221.586211 C144.916834,221.515099 145.019439,221.483078 145.12,221.5 C145.39,221.5 145.52,221.63 145.52,221.88 L145.52,233 Z" id="Shape" fill="#FFFFFF"></path>
                <path d="M166.75,221.33 C167.50498,221.31226 168.251961,221.487818 168.92,221.84 C169.533828,222.172892 170.066524,222.637293 170.48,223.2 C170.937563,223.796959 171.27697,224.475774 171.48,225.2 C171.689893,225.948499 171.794233,226.722641 171.79,227.5 C171.793216,228.283209 171.692333,229.063371 171.49,229.82 C171.2969,230.519564 170.982091,231.179648 170.56,231.77 C170.145783,232.326805 169.61292,232.784521 169,233.11 C167.612155,233.790015 165.987845,233.790015 164.6,233.11 C163.984496,232.783914 163.451083,232.322306 163.04,231.76 C162.614438,231.153419 162.299583,230.476311 162.11,229.76 C161.907613,229.006788 161.806721,228.229922 161.81,227.45 C161.805767,226.672641 161.910107,225.898499 162.12,225.15 C162.3068,224.430883 162.625539,223.752716 163.06,223.15 C163.916591,221.94289 165.320538,221.24467 166.8,221.29 L166.75,221.33 Z M166.75,232.8 C167.361287,232.810264 167.966793,232.680269 168.52,232.42 C169.038453,232.163887 169.492922,231.794844 169.85,231.34 C170.232309,230.842401 170.514207,230.275208 170.68,229.67 C170.876017,228.963655 170.970299,228.232966 170.96,227.5 C170.959027,226.82497 170.87165,226.152842 170.7,225.5 C170.548445,224.882066 170.28768,224.29619 169.93,223.77 C169.588026,223.272237 169.140804,222.855741 168.62,222.55 C168.049449,222.231106 167.403379,222.07218 166.75,222.09 C166.097996,222.073476 165.453107,222.228664 164.88,222.54 C164.359648,222.842068 163.912351,223.25522 163.57,223.75 C163.216816,224.276334 162.953249,224.857533 162.79,225.47 C162.608467,226.121081 162.517611,226.79409 162.52,227.47 C162.519523,228.145124 162.606924,228.817438 162.78,229.47 C162.937809,230.079552 163.198192,230.657805 163.55,231.18 C163.898058,231.671767 164.352706,232.078557 164.88,232.37 C165.455006,232.674393 166.099789,232.822659 166.75,232.8 Z" id="Shape" fill="#FFFFFF"></path>
                <path d="M188.6,232.85 C188.6,233.21 188.47,233.4 188.21,233.4 C187.95,233.4 187.81,233.21 187.81,232.85 L187.81,222.08 C187.81,221.69 187.94,221.5 188.19,221.5 C188.318577,221.493414 188.44334,221.544787 188.53,221.64 L188.78,221.94 L195.38,231.94 L195.38,222.06 C195.369532,221.915416 195.397114,221.770612 195.46,221.64 C195.527162,221.543168 195.643419,221.49279 195.76,221.51 C195.879651,221.497071 195.998354,221.541584 196.08,221.63 C196.148226,221.762398 196.176045,221.911924 196.16,222.06 L196.16,232.8 C196.16,233.2 196.04,233.4 195.79,233.4 C195.54,233.4 195.37,233.25 195.18,232.95 L188.6,223.05 L188.6,232.85 Z" id="Shape" fill="#FFFFFF"></path>
                <path d="M1,196.32 L1,149 C1,148.072162 1.75216162,147.32 2.68,147.32 L10.24,147.32 C11.1678384,147.32 11.92,148.072162 11.92,149 L11.92,196.32 C11.92,196.765564 11.7430005,197.192878 11.4279394,197.507939 C11.1128783,197.823001 10.6855637,198 10.24,198 L2.68,198 C1.75216162,198 1,197.247838 1,196.32 Z M14.71,196.32 L14.71,189 C14.7154997,188.076069 15.4660529,187.329984 16.39,187.33 L21.91,187.33 C24.2028598,187.394032 26.4913461,187.093626 28.69,186.44 C30.506091,185.805639 32.1614438,184.781709 33.54,183.44 C36.4838969,180.681569 38.1346715,176.81404 38.09,172.78 C38.1043049,170.463742 37.5769401,168.176211 36.55,166.1 C35.5548027,164.043748 34.0758909,162.259446 32.24,160.9 C30.8688181,159.81662 29.2894129,159.026918 27.6,158.58 C25.3408598,158.114634 23.0357917,157.909963 20.73,157.97 L16.39,157.97 C15.4621616,157.97 14.71,157.217838 14.71,156.29 L14.71,149 C14.71,148.072162 15.4621616,147.32 16.39,147.32 L21.84,147.32 C25.2525202,147.252425 28.655273,147.707699 31.93,148.67 C34.7849537,149.59116 37.4220311,151.084937 39.68,153.06 C45.8533333,158.32 48.9366667,164.846667 48.93,172.64 C48.9642449,177.640952 47.5091274,182.538919 44.75,186.71 C42.4755928,190.331756 39.2845514,193.288213 35.5,195.28 C31.3656332,197.204862 26.8384535,198.136324 22.28,198 L16.39,198 C15.4621616,198 14.71,197.247838 14.71,196.32 Z" id="Shape" fill="#FFFFFF"></path>
                <path d="M82.64,146 L56.82,195.54 C56.5468358,196.061095 56.5661751,196.687119 56.8709833,197.19036 C57.1757914,197.6936 57.7216478,198.000718 58.31,198 L66.79,198 C67.4198598,197.996897 67.9950676,197.641735 68.28,197.08 L84.11,166.22 L89.86,177.31 L83,177.31 C82.4506724,177.310868 81.9483258,177.620004 81.7,178.11 L77.31,186.68 C77.0773205,187.134376 77.0970321,187.676935 77.3620702,188.113228 C77.6271084,188.549522 78.099521,188.817075 78.61,188.82 L95.71,188.82 L100.01,197.09 C100.295935,197.649474 100.871693,198.001112 101.5,198 L110,198 C110.588352,198.000718 111.134209,197.6936 111.439017,197.19036 C111.743825,196.687119 111.763164,196.061095 111.49,195.54 L85.62,146 C85.3306634,145.444501 84.7563343,145.09608 84.13,145.09608 C83.5036657,145.09608 82.9293366,145.444501 82.64,146 Z" id="Shape" fill="#FFFFFF"></path>
                <path d="M185,196.32 L185,149 C185,148.554436 185.176999,148.127122 185.492061,147.812061 C185.807122,147.496999 186.234436,147.32 186.68,147.32 L194.24,147.32 C195.160018,147.330953 195.900065,148.079916 195.9,149 L195.9,196.32 C195.9,197.247838 195.147838,198 194.22,198 L186.66,198 C185.739982,197.989047 184.999935,197.240084 185,196.32 Z" id="Shape" fill="#FFFFFF"></path>
                <path d="M137.29,158.22 C143.153147,155.628032 150.006579,156.907574 154.539502,161.440498 C159.072426,165.973421 160.351968,172.826853 157.76,178.69 L165.76,186.69 C172.481761,176.273287 171.023181,162.57811 162.258258,153.810778 C153.493335,145.043446 139.79856,143.581103 129.38,150.3 L137.29,158.22 Z" id="Shape" fill="#FFFFFF"></path>
                <path d="M156.13,181.5 C152.532932,186.464269 146.349322,188.843981 140.352259,187.571936 C134.355195,186.299891 129.670109,181.614805 128.398064,175.617741 C127.126019,169.620678 129.505731,163.437068 134.47,159.84 L126.75,152.12 C116.84119,160.286703 114.27165,174.411549 120.669501,185.5447 C127.067352,196.677852 140.564993,201.569423 152.61,197.12 L153.14,196.93 C153.47,196.8 153.8,196.68 154.14,196.53 L154.69,196.31 L171.69,199.96 C172.171388,200.041171 172.650474,199.804025 172.877844,199.372023 C173.105213,198.940021 173.029451,198.41085 172.69,198.06 L156.13,181.5 Z" id="Shape" fill="#FFFFFF"></path>
            </g>
        </g>
    </g>
</svg>